<?xml version="1.0" encoding="utf-8"?>
<!-- Generator: Adobe Illustrator 27.5.0, SVG Export Plug-In . SVG Version: 6.00 Build 0)  -->
<svg version="1.1" xmlns="http://www.w3.org/2000/svg" xmlns:xlink="http://www.w3.org/1999/xlink" x="0px" y="0px"
	 viewBox="125 0 750 500" style="enable-background:new 125 0 750 500;" xml:space="preserve">
<g id="BACKGROUND">
	<rect x="125" style="fill:#B6ECF0;" width="750" height="500"/>
</g>
<g id="OBJECTS">
	<g>
		<defs>
			<rect id="SVGID_1_" x="125" width="750" height="500"/>
		</defs>
		<clipPath id="SVGID_00000088129728923549971670000005868508036808201868_">
			<use xlink:href="#SVGID_1_"  style="overflow:visible;"/>
		</clipPath>
		<g style="clip-path:url(#SVGID_00000088129728923549971670000005868508036808201868_);">
			<rect x="125" y="414.36" style="fill:#5EB7BD;" width="749.31" height="6.33"/>
			<g>
				<g>
					<g>
						<rect x="454.59" y="96.44" style="fill:#9CD4DF;" width="23.83" height="324.25"/>
						<g>
							<g>
								<rect x="125" y="306.34" style="fill:#F9FDFD;" width="750" height="9"/>
								<g>
									<g>
										<rect x="315.19" y="94.9" style="fill:#949BA3;" width="158.76" height="344.7"/>
										<rect x="326.86" y="108.17" style="fill:#E9F2F2;" width="135.43" height="318.17"/>
										<rect x="333.29" y="114.09" style="fill:#F9FDFD;" width="128.99" height="312.25"/>
									</g>
									<g>
										<g>
											<g>
												<rect x="352.68" y="132.07" style="fill:#7ABED6;" width="83.79" height="121.99"/>
												<rect x="357.09" y="135.42" style="fill:#97DDE9;" width="79.38" height="118.63"/>
											</g>
											<g style="opacity:0.3098;">
												<polygon style="fill:#D6FEFF;" points="396.16,132.07 390.23,135.42 357.09,154.21 352.68,156.71 352.68,132.07 
																									"/>
												<polygon style="fill:#D6FEFF;" points="417.36,132.07 411.44,135.42 357.09,166.23 352.68,168.73 352.68,164.88 
													357.09,162.38 404.65,135.42 410.58,132.07 												"/>
												<polygon style="fill:#D6FEFF;" points="436.47,168.52 436.47,171.57 357.09,216.57 352.68,219.07 352.68,216.01 
													357.09,213.52 												"/>
												<polygon style="fill:#D6FEFF;" points="380.13,254.05 436.47,222.13 436.47,225.96 386.9,254.05 												"/>
												<polygon style="fill:#D6FEFF;" points="436.47,230.87 436.47,254.05 395.56,254.05 												"/>
											</g>
										</g>
										<g>
											<rect x="341.33" y="262.92" style="fill:#E9F2F2;" width="7.72" height="68.27"/>
											<rect x="337.48" y="260.68" style="fill:#949BA3;" width="7.72" height="68.27"/>
										</g>
									</g>
								</g>
							</g>
							<g>
								<rect x="125" y="420.62" style="fill:#F2F2F2;" width="749.31" height="79.38"/>
								<g>
									<g>
										<defs>
											
												<rect id="SVGID_00000039131710373674340950000007044763059260169362_" x="125" y="420.62" width="749.31" height="79.38"/>
										</defs>
										<clipPath id="SVGID_00000013161667723374077290000008663968845333397892_">
											<use xlink:href="#SVGID_00000039131710373674340950000007044763059260169362_"  style="overflow:visible;"/>
										</clipPath>
										<g style="clip-path:url(#SVGID_00000013161667723374077290000008663968845333397892_);">
											
												<line style="fill:none;stroke:#CCC2C2;stroke-width:1.5;stroke-miterlimit:10;" x1="525.78" y1="418.24" x2="526.03" y2="567.74"/>
											
												<line style="fill:none;stroke:#CCC2C2;stroke-width:1.5;stroke-miterlimit:10;" x1="403.78" y1="418.24" x2="358.03" y2="567.74"/>
											
												<line style="fill:none;stroke:#CCC2C2;stroke-width:1.5;stroke-miterlimit:10;" x1="289.78" y1="418.24" x2="174.75" y2="567.74"/>
											
												<line style="fill:none;stroke:#CCC2C2;stroke-width:1.5;stroke-miterlimit:10;" x1="174.62" y1="418.24" x2="-85.13" y2="567.74"/>
											
												<line style="fill:none;stroke:#CCC2C2;stroke-width:1.5;stroke-miterlimit:10;" x1="663.68" y1="418.24" x2="730.93" y2="567.74"/>
											
												<line style="fill:none;stroke:#CCC2C2;stroke-width:1.5;stroke-miterlimit:10;" x1="811.68" y1="418.24" x2="1041.93" y2="567.74"/>
										</g>
									</g>
								</g>
							</g>
						</g>
						<g>
							<g>
								<rect x="162.5" y="107" style="fill:#F9FDFD;" width="72.59" height="112.1"/>
								<path style="fill:#7ABED6;" d="M198.8,124.6c-13.07,0-23.66,10.59-23.66,23.67c0,13.07,10.59,23.66,23.66,23.66
									c2.87,0,5.61-0.51,8.14-1.43l-8.14-22.23l21.55,9.8c1.37-2.99,2.12-6.3,2.12-9.8C222.47,135.2,211.87,124.6,198.8,124.6z"/>
								<g>
									<path style="fill:#AFE2ED;" d="M211.07,175.1c5.96-2.19,10.8-6.7,13.41-12.43l-21.55-9.8L211.07,175.1z"/>
									<g>
										<rect x="169.05" y="111.26" style="fill:#6089AB;" width="59.5" height="7.35"/>
										<rect x="163.99" y="120.19" style="fill:#6089AB;" width="69.61" height="0.92"/>
									</g>
									<g>
										<g>
											<rect x="171.89" y="177.93" style="fill:#6089AB;" width="20.16" height="0.92"/>
											<rect x="169.05" y="181.68" style="fill:#6089AB;" width="23" height="0.92"/>
											<rect x="169.05" y="185.42" style="fill:#6089AB;" width="23" height="0.92"/>
											<rect x="169.05" y="189.17" style="fill:#6089AB;" width="23" height="0.92"/>
										</g>
										<g>
											<rect x="171.89" y="196.08" style="fill:#6089AB;" width="20.16" height="0.92"/>
											<rect x="169.05" y="199.83" style="fill:#6089AB;" width="23" height="0.92"/>
											<rect x="169.05" y="203.58" style="fill:#6089AB;" width="23" height="0.92"/>
											<rect x="169.05" y="207.33" style="fill:#6089AB;" width="23" height="0.92"/>
										</g>
									</g>
									<g>
										<g>
											<rect x="206.15" y="177.93" style="fill:#6089AB;" width="20.16" height="0.92"/>
											<rect x="203.3" y="181.68" style="fill:#6089AB;" width="23" height="0.92"/>
											<rect x="203.3" y="185.42" style="fill:#6089AB;" width="23" height="0.92"/>
											<rect x="203.3" y="189.17" style="fill:#6089AB;" width="23" height="0.92"/>
										</g>
										<g>
											<rect x="206.15" y="196.08" style="fill:#6089AB;" width="20.16" height="0.92"/>
											<rect x="203.3" y="199.83" style="fill:#6089AB;" width="23" height="0.92"/>
											<rect x="203.3" y="203.58" style="fill:#6089AB;" width="23" height="0.92"/>
											<rect x="203.3" y="207.33" style="fill:#6089AB;" width="23" height="0.92"/>
										</g>
									</g>
								</g>
							</g>
							<g>
								<rect x="250.6" y="157.93" style="fill:#9BD3DE;" width="57" height="21"/>
								<rect x="248.6" y="155.93" style="fill:#F9FDFD;" width="57" height="21"/>
							</g>
							<g>
								<circle style="fill:#9CD4DF;" cx="528.61" cy="131.32" r="26.11"/>
								<g>
									<g>
										<g>
											<circle style="fill:#6089AB;" cx="526.11" cy="129.82" r="26.11"/>
											<g>
												<path style="fill:#D7DFE0;" d="M549.32,129.82c0,12.82-10.39,23.21-23.21,23.21c-6.09,0-11.62-2.34-15.76-6.19
													c-0.05-0.04-0.11-0.09-0.16-0.14c-4.49-4.22-7.29-10.23-7.29-16.88c0-12.82,10.39-23.21,23.21-23.21
													c6.86,0,13.02,2.97,17.27,7.7c0.4,0.46,0.79,0.92,1.16,1.4C547.54,119.63,549.32,124.51,549.32,129.82z"/>
												<path style="fill:#F1FAFC;" d="M549.32,129.82c0,12.82-10.39,23.21-23.21,23.21c-6.09,0-11.62-2.34-15.76-6.19
													c-3-3.91-4.78-8.79-4.78-14.1c0-12.82,10.39-23.21,23.21-23.21c6.08,0,11.61,2.34,15.76,6.18
													C547.54,119.63,549.32,124.51,549.32,129.82z"/>
											</g>
										</g>
										<g>
											<g>
												<g>
													<rect x="525.44" y="107.73" style="fill:#6089AB;" width="1.34" height="3.35"/>
													<rect x="525.44" y="148.57" style="fill:#6089AB;" width="1.34" height="3.35"/>
												</g>
												<g>
													<rect x="544.854" y="129.15" style="fill:#6089AB;" width="3.35" height="1.34"/>
													<rect x="504.013" y="129.151" style="fill:#6089AB;" width="3.35" height="1.34"/>
												</g>
											</g>
											<g>
												<g>
													
														<rect x="538.872" y="114.71" transform="matrix(0.7071 -0.7071 0.7071 0.7071 76.7364 416.0182)" style="fill:#6089AB;" width="3.35" height="1.34"/>
													
														<rect x="509.991" y="143.589" transform="matrix(0.7071 -0.7071 0.7071 0.7071 47.8571 404.0553)" style="fill:#6089AB;" width="3.35" height="1.34"/>
												</g>
												<g>
													
														<rect x="539.883" y="142.582" transform="matrix(0.7071 -0.7071 0.7071 0.7071 56.3195 424.4805)" style="fill:#6089AB;" width="1.34" height="3.35"/>
													
														<rect x="511.005" y="113.703" transform="matrix(0.7071 -0.7071 0.7071 0.7071 68.2818 395.6023)" style="fill:#6089AB;" width="1.34" height="3.35"/>
												</g>
											</g>
										</g>
									</g>
									<circle style="fill:#6089AB;" cx="526.11" cy="129.82" r="1.34"/>
								</g>
							</g>
						</g>
					</g>
				</g>
				<g>
					<g>
						<rect x="625.84" style="fill:#313033;" width="4" height="94.9"/>
						<g>
							<g>
								<rect x="583.84" y="87.12" style="fill:#555557;" width="84" height="32"/>
								<rect x="587.84" y="90.62" style="fill:#313033;" width="76" height="25"/>
							</g>
							
								<text transform="matrix(1 0 0 1 615.4151 112.5919)" style="fill:#F2686A; font-family:'Bebas-Regular'; font-size:25.375px;">26</text>
						</g>
					</g>
					<g>
						<g>
							
								<linearGradient id="SVGID_00000018924128064849895390000013156071033038199207_" gradientUnits="userSpaceOnUse" x1="771.92" y1="504.9864" x2="771.92" y2="399.3958" gradientTransform="matrix(1 0 0 -1 0 500)">
								<stop  offset="0" style="stop-color:#FFFFFF"/>
								<stop  offset="1" style="stop-color:#FFFFFF;stop-opacity:0"/>
							</linearGradient>
							<polygon style="fill:url(#SVGID_00000018924128064849895390000013156071033038199207_);" points="712.92,107.89 726.49,27.3 
								815.58,27.3 830.92,107.89 							"/>
							<g>
								<path style="fill:#FFFFFF;" d="M726.49,26.96v-1.02c0-2.21,1.79-4,4-4h81.09c2.21,0,4,1.79,4,4v1.02c0,2.21-1.79,4-4,4
									h-81.09C728.28,30.96,726.49,29.17,726.49,26.96z"/>
								<g>
									<path style="fill:#313033;" d="M720.29,26.45v-1.27c0-5.52,4.48-10,10-10h81.48c5.52,0,10,4.48,10,10v1.27H720.29z"/>
									<g>
										<rect x="732.35" y="-14.11" style="fill:#313033;" width="2.95" height="33.25"/>
										<rect x="807.28" y="-14.11" style="fill:#313033;" width="2.95" height="34.93"/>
									</g>
								</g>
							</g>
						</g>
						<g>
							
								<linearGradient id="SVGID_00000183236939486591306950000010416772274999874705_" gradientUnits="userSpaceOnUse" x1="486.06" y1="504.9864" x2="486.06" y2="399.3958" gradientTransform="matrix(1 0 0 -1 0 500)">
								<stop  offset="0" style="stop-color:#FFFFFF"/>
								<stop  offset="1" style="stop-color:#FFFFFF;stop-opacity:0"/>
							</linearGradient>
							<polygon style="fill:url(#SVGID_00000183236939486591306950000010416772274999874705_);" points="427.06,107.89 440.63,27.3 
								529.72,27.3 545.06,107.89 							"/>
							<g>
								<path style="fill:#FFFFFF;" d="M440.63,26.96v-1.02c0-2.21,1.79-4,4-4h81.09c2.21,0,4,1.79,4,4v1.02c0,2.21-1.79,4-4,4
									h-81.09C442.43,30.96,440.63,29.17,440.63,26.96z"/>
								<g>
									<path style="fill:#313033;" d="M434.44,26.45v-1.27c0-5.52,4.48-10,10-10h81.48c5.52,0,10,4.48,10,10v1.27H434.44z"/>
									<g>
										<rect x="446.5" y="-14.11" style="fill:#313033;" width="2.95" height="33.25"/>
										<rect x="521.43" y="-14.11" style="fill:#313033;" width="2.95" height="34.93"/>
									</g>
								</g>
							</g>
						</g>
						<g>
							
								<linearGradient id="SVGID_00000101791835285060054580000010831676563516712894_" gradientUnits="userSpaceOnUse" x1="218.42" y1="504.9864" x2="218.42" y2="399.3958" gradientTransform="matrix(1 0 0 -1 0 500)">
								<stop  offset="0" style="stop-color:#FFFFFF"/>
								<stop  offset="1" style="stop-color:#FFFFFF;stop-opacity:0"/>
							</linearGradient>
							<polygon style="fill:url(#SVGID_00000101791835285060054580000010831676563516712894_);" points="159.42,107.89 172.99,27.3 
								262.08,27.3 277.42,107.89 							"/>
							<g>
								<path style="fill:#FFFFFF;" d="M172.99,26.96v-1.02c0-2.21,1.79-4,4-4h81.09c2.21,0,4,1.79,4,4v1.02c0,2.21-1.79,4-4,4
									h-81.09C174.78,30.96,172.99,29.17,172.99,26.96z"/>
								<g>
									<path style="fill:#313033;" d="M166.8,26.45v-1.27c0-5.52,4.48-10,10-10h81.48c5.52,0,10,4.48,10,10v1.27H166.8z"/>
									<g>
										<rect x="178.86" y="-14.11" style="fill:#313033;" width="2.95" height="33.25"/>
										<rect x="253.79" y="-14.11" style="fill:#313033;" width="2.95" height="34.93"/>
									</g>
								</g>
							</g>
						</g>
					</g>
				</g>
				<g>
					<g>
						<g>
							<g>
								<path style="fill:#1D282B;" d="M294.69,365.66v51.37h-5.14v-48.31c0-1.09-0.89-1.98-1.98-1.98H118.69v-6h171.08
									C292.49,360.74,294.69,362.94,294.69,365.66z"/>
								<rect x="280.75" y="417.03" style="fill:#1D282B;" width="22.75" height="4.75"/>
							</g>
							<g>
								<g>
									<path style="fill:#3E8C8F;" d="M288.73,348.81h-54.74l5.57-38.73c0.25-1.73,0.96-3.3,2.02-4.62
										c1.87-2.4,4.87-3.92,8.19-3.92h23.18c5.14,0,9.51,3.65,10.21,8.55l3.86,26.81L288.73,348.81z"/>
									<path style="fill:#3E8C8F;" d="M301.46,361.36c-0.19,0.26-1.26,0.5-3.02,0.72c-14.45,1.83-75.4,2.26-77.3-0.72
										c-1.09-1.73-1.04-3.33-0.27-4.76c2.56-4.82,12.95-7.79,12.95-7.79h54.98c0,0,1.69,0.49,3.89,1.4
										c3.33,1.35,7.82,3.65,9.26,6.57C302.64,358.17,302.64,359.72,301.46,361.36z"/>
									<path style="fill:#54ABA6;" d="M301.46,361.36c-0.19,0.26-1.26,0.5-3.02,0.72c-11.96-0.19-23.93-0.39-35.9-0.58
										c10.46-0.97,20.91-1.93,31.37-2.9c0.92-0.09,1.86-0.18,2.68-0.56c0.83-0.4,1.55-1.14,1.62-2.04
										c0.08-1.13-0.82-2.09-1.69-2.84c-1.21-1.06-2.5-2.04-3.83-2.95c3.33,1.35,7.82,3.65,9.26,6.57
										C302.64,358.17,302.64,359.72,301.46,361.36z"/>
									<path style="fill:#337780;" d="M301.46,361.36c-1.71,2.4-78.18,3.35-80.32,0c-1.09-1.73-1.04-3.33-0.27-4.76
										c4.71,2.56,10.54,3.12,16.03,3.4c19.19,0.98,38.43,0.27,57.63-0.48c1.68-0.07,3.39-0.14,4.94-0.77
										c0.99-0.41,1.9-1.09,2.48-1.96C302.64,358.17,302.64,359.72,301.46,361.36z"/>
									<path style="fill:#337780;" d="M243.54,346.11c12.63,4.16,26.65,4.18,39.29,0.05C269.87,348.5,256.43,348.26,243.54,346.11
										z"/>
									<path style="fill:#54ABA6;" d="M287.01,336.89c-2.57-8.05-5.14-16.11-7.71-24.16c-0.65-2.02-1.36-4.13-2.95-5.57
										c-2-1.82-4.94-2.14-7.65-2.31c-6.91-0.44-13.85-0.57-20.78-0.37c-2.06,0.06-4.16,0.15-6.1,0.88
										c-0.08,0.04-0.15,0.06-0.24,0.11c1.87-2.4,4.87-3.92,8.19-3.92h23.18c5.14,0,9.51,3.65,10.21,8.55L287.01,336.89z"/>
								</g>
								<g>
									<path style="fill:#3E8C8F;" d="M199.43,348.81h-54.74l5.57-38.73c0.25-1.73,0.96-3.3,2.02-4.62
										c1.87-2.4,4.87-3.92,8.19-3.92h23.18c5.14,0,9.51,3.65,10.21,8.55l3.86,26.81L199.43,348.81z"/>
									<path style="fill:#3E8C8F;" d="M212.16,361.36c-0.19,0.26-1.26,0.5-3.02,0.72c-14.45,1.83-75.4,2.26-77.3-0.72
										c-1.09-1.73-1.04-3.33-0.27-4.76c2.56-4.82,12.95-7.79,12.95-7.79h54.98c0,0,1.69,0.49,3.89,1.4
										c3.33,1.35,7.82,3.65,9.26,6.57C213.34,358.17,213.34,359.72,212.16,361.36z"/>
									<path style="fill:#54ABA6;" d="M212.16,361.36c-0.19,0.26-1.26,0.5-3.02,0.72c-11.96-0.19-23.93-0.39-35.9-0.58
										c10.46-0.97,20.91-1.93,31.37-2.9c0.92-0.09,1.86-0.18,2.68-0.56c0.83-0.4,1.55-1.14,1.62-2.04
										c0.08-1.13-0.82-2.09-1.69-2.84c-1.21-1.06-2.5-2.04-3.83-2.95c3.33,1.35,7.82,3.65,9.26,6.57
										C213.34,358.17,213.34,359.72,212.16,361.36z"/>
									<path style="fill:#337780;" d="M212.16,361.36c-1.71,2.4-78.18,3.35-80.32,0c-1.09-1.73-1.04-3.33-0.27-4.76
										c4.71,2.56,10.54,3.12,16.03,3.4c19.19,0.98,38.43,0.27,57.63-0.48c1.68-0.07,3.39-0.14,4.94-0.77
										c0.99-0.41,1.9-1.09,2.48-1.96C213.34,358.17,213.34,359.72,212.16,361.36z"/>
									<path style="fill:#337780;" d="M154.24,346.11c12.63,4.16,26.65,4.18,39.29,0.05C180.57,348.5,167.13,348.26,154.24,346.11
										z"/>
									<path style="fill:#54ABA6;" d="M197.71,336.89c-2.57-8.05-5.14-16.11-7.71-24.16c-0.65-2.02-1.36-4.13-2.95-5.57
										c-2-1.82-4.94-2.14-7.65-2.31c-6.91-0.44-13.85-0.57-20.78-0.37c-2.06,0.06-4.16,0.15-6.1,0.88
										c-0.08,0.04-0.15,0.06-0.24,0.11c1.87-2.4,4.87-3.92,8.19-3.92h23.18c5.14,0,9.51,3.65,10.21,8.55L197.71,336.89z"/>
								</g>
								<g>
									<path style="fill:#3E8C8F;" d="M114.43,348.81H59.69l5.57-38.73c0.25-1.73,0.96-3.3,2.02-4.62
										c1.87-2.4,4.87-3.92,8.19-3.92h23.18c5.14,0,9.51,3.65,10.21,8.55l3.86,26.81L114.43,348.81z"/>
									<path style="fill:#3E8C8F;" d="M127.16,361.36c-0.19,0.26-1.26,0.5-3.02,0.72c-14.45,1.83-75.4,2.26-77.3-0.72
										c-1.09-1.73-1.04-3.33-0.27-4.76c2.56-4.82,12.95-7.79,12.95-7.79h54.98c0,0,1.69,0.49,3.89,1.4
										c3.33,1.35,7.82,3.65,9.26,6.57C128.34,358.17,128.34,359.72,127.16,361.36z"/>
									<path style="fill:#54ABA6;" d="M127.16,361.36c-0.19,0.26-1.26,0.5-3.02,0.72c-11.96-0.19-23.93-0.39-35.9-0.58
										c10.46-0.97,20.91-1.93,31.37-2.9c0.92-0.09,1.86-0.18,2.68-0.56c0.83-0.4,1.55-1.14,1.62-2.04
										c0.08-1.13-0.82-2.09-1.69-2.84c-1.21-1.06-2.5-2.04-3.83-2.95c3.33,1.35,7.82,3.65,9.26,6.57
										C128.34,358.17,128.34,359.72,127.16,361.36z"/>
									<path style="fill:#337780;" d="M127.16,361.36c-1.71,2.4-78.18,3.35-80.32,0c-1.09-1.73-1.04-3.33-0.27-4.76
										c4.71,2.56,10.54,3.12,16.03,3.4c19.19,0.98,38.43,0.27,57.63-0.48c1.68-0.07,3.39-0.14,4.94-0.77
										c0.99-0.41,1.9-1.09,2.48-1.96C128.34,358.17,128.34,359.72,127.16,361.36z"/>
									<path style="fill:#337780;" d="M69.24,346.11c12.63,4.16,26.65,4.18,39.29,0.05C95.57,348.5,82.13,348.26,69.24,346.11z"/>
									<path style="fill:#54ABA6;" d="M112.71,336.89c-2.57-8.05-5.14-16.11-7.71-24.16c-0.65-2.02-1.36-4.13-2.95-5.57
										c-2-1.82-4.94-2.14-7.65-2.31c-6.91-0.44-13.85-0.57-20.78-0.37c-2.06,0.06-4.16,0.15-6.1,0.88
										c-0.08,0.04-0.15,0.06-0.24,0.11c1.87-2.4,4.87-3.92,8.19-3.92h23.18c5.14,0,9.51,3.65,10.21,8.55L112.71,336.89z"/>
								</g>
							</g>
						</g>
						<g>
							<g>
								<g>
									<path style="fill:#E88466;" d="M280.6,301.85c4.17,0.17,8.34,0.33,12.51,0.5c-0.69,15.84-1.37,31.69-2.06,47.53
										c-2.82,0.17-5.64,0.34-8.46,0.51C282.34,334.75,282.09,319.13,280.6,301.85z"/>
									<path style="fill:#E88466;" d="M294.09,352.52c0.88,0.24,1.74,1.21,1.25,1.98c-0.33,0.52-1.06,0.58-1.68,0.56
										c-2.97-0.06-5.94-0.38-8.86-0.94c-0.63-0.12-1.34-0.31-1.65-0.87c-0.22-0.4-0.18-0.89-0.13-1.34
										c0.23-1.99,0.59-3.96,1.57-6.22c3.17,0.22,6.35,0.45,9.43,1.21c3.08,0.76,6.09,2.08,8.41,4.24
										c0.62,0.58,1.23,1.36,1.03,2.18c-0.14,0.61-0.71,1.04-1.31,1.2s-1.24,0.08-1.85-0.03
										C298,354.08,293.22,352.28,294.09,352.52z"/>
								</g>
								<path style="fill:#A64728;" d="M274.83,281.57c1.94-2.77,3.6-4.99,6.39-8.41c7.88,3.35,8.66,8.86,10.66,14.81
									s2.76,12.23,3.52,18.46c-5.5,1.3-11.01,2.59-16.51,3.89C276.34,303.12,275.02,295.48,274.83,281.57z"/>
							</g>
							<g>
								<g>
									<path style="fill:#F3B384;" d="M274.13,270.48c-3.98,16.19-13.06,17.12-23.91-0.97c3.49-2.47,5.7-4.43,6.46-7.33
										c0.1-0.4,0.19-0.79,0.25-1.19c0.27-1.6,0.24-3.26,0.13-5c-0.06-1.02-0.14-2.06-0.22-3.13c4.09-0.12,8.18-0.25,12.27-0.18
										c0.06,0.42,0.1,0.84,0.11,1.26c0.06,1.93-0.29,3.87-0.56,5.8c-0.33,2.35-0.51,4.83,0.36,7.02c0.09,0.23,0.2,0.46,0.32,0.69
										C270.36,269.32,272.31,270.74,274.13,270.48z"/>
									<path style="fill:#E88466;" d="M256.94,260.98c3.36,3.36,7.74,5.67,12.4,6.46c-0.12-0.22-0.23-0.46-0.32-0.69
										c-0.87-2.19-0.68-4.66-0.36-7.02c0.27-1.93,0.62-3.87,0.56-5.8c-1.35-0.69-2.88-1.09-4.37-1.17
										c-2.66-0.12-5.26,0.58-7.79,3.21"/>
								</g>
								<g>
									<path style="fill:#E88466;" d="M281.034,248.858c2.907-0.426,5.523,0.996,5.842,3.176c0.32,2.18-1.778,4.293-4.685,4.719
										c-2.907,0.426-5.523-0.996-5.842-3.176C276.029,251.396,278.127,249.284,281.034,248.858z"/>
									<g>
										<g>
											<path style="fill:#F3B384;" d="M270.62,264.29c-8.79,0.09-17.86-9.96-17.88-21.23c-0.01-11.26,7.11-20.45,15.9-20.55
												c2.62-0.02,5.08,0.76,7.26,2.18c4.97,3.2,10.47,5.55,8.67,17.22C282.35,256.31,279.42,264.19,270.62,264.29z"/>
											<path style="fill:#E88466;" d="M256.24,246.1c1.56-1.6,3.48-2.78,5.12-4.29c1.64-1.51,3.04-3.51,3.01-5.69
												c1.43,1.52,3.32,2.6,5.36,3.06c0.73,0.17,1.5,0.25,2.2,0c0.7-0.25,1.3-0.91,1.23-1.64c3.08,2.22,6.51,3.94,10.15,5.21
												c0.09,1.65,0.19,3.29,0.28,4.94c0.74-1.44,1.49-2.89,1.88-4.46c0.39-1.57,0.38-3.3-0.36-4.74
												c-0.79-1.56-2.31-2.59-3.77-3.56c-3.9-2.6-7.84-5.21-12.2-6.92c-2.33-0.92-4.9-1.57-7.32-0.93
												c-2.92,0.76-5.1,3.31-6.21,6.11s-1.32,5.87-1.52,8.88"/>
										</g>
										<g>
											<path style="fill:#363A40;" d="M278.318,251.522c0.182-0.78,0.757-1.312,1.284-1.189
												c0.527,0.123,0.807,0.855,0.625,1.635c-0.182,0.78-0.757,1.312-1.284,1.189S278.136,252.302,278.318,251.522z"/>
											<path style="fill:#363A40;" d="M266.846,249.482c0.182-0.78,0.757-1.312,1.284-1.189
												c0.527,0.123,0.807,0.855,0.625,1.635c-0.182,0.78-0.757,1.312-1.284,1.189
												C266.944,250.994,266.664,250.262,266.846,249.482z"/>
											<path style="fill:none;stroke:#403232;stroke-linecap:round;stroke-miterlimit:10;" d="M270.4,242.73
												c-1.65-0.65-3.65-0.41-5.03,0.61"/>
											<path style="fill:none;stroke:#403232;stroke-linecap:round;stroke-miterlimit:10;" d="M282.78,246.52
												c-0.62-1.6-2.32-2.71-4.04-2.64"/>
											<path style="fill:none;stroke:#C95147;stroke-linecap:round;stroke-miterlimit:10;" d="M276.13,250.4
												c-0.22,1.55-0.67,3.08-1.33,4.5"/>
										</g>
										<g>
											<path style="fill:#403232;" d="M291.92,236.2c0.08,0.93-0.26,1.95-1.04,2.45c-0.78,0.51-2,0.31-2.6-0.37
												c0.65,0.98,1.31,2,1.54,3.15c0.22,1.16-0.1,2.5-1.08,3.16c-0.23,0.15-0.48,0.25-0.74,0.3c-0.79,0.16-1.63-0.1-1.94-0.71
												c-0.23,2.57-1.82,5.65-3.45,7.56c0.44-2.94,1.06-5.92,1.44-9.59c-4.44-1.83-8.14-4.16-12.42-6.69
												c0.42,0.57,0.2,1.43-0.34,1.88c-0.55,0.44-1.32,0.49-2,0.31c-0.68-0.19-1.27-0.58-1.83-1.01
												c-1.42-1.07-2.71-2.32-3.58-3.8c-0.49,4.16-2.68,8.08-5.81,10.77c-1.29,2.29-2.2,4.78-2.68,7.36
												c-0.97-0.81-1.94-1.61-3.14-2.38c-1.36-6.47-1.19-13.26,0.46-19.66c0.47-1.8,1.09-3.64,2.42-4.97
												c1.31-1.31,3.5-1.94,5.28-0.87c0.37-0.75,0.9-1.42,1.53-1.98c1.08-0.94,2.48-1.56,3.92-1.83c2.26-0.4,4.6-0.02,6.82,0.59
												c7.55,2.07,14.45,6.91,18.28,13.75C291.43,234.41,291.84,235.28,291.92,236.2z"/>
											<path style="fill:#635250;" d="M291.92,236.2c0.08,0.93-0.26,1.95-1.04,2.45c-0.78,0.51-2,0.31-2.6-0.37
												c0.65,0.98,1.31,2,1.54,3.15c0.22,1.16-0.1,2.5-1.08,3.16c-0.23,0.15-0.48,0.25-0.74,0.3c0.54-1.32,0.43-2.96-0.15-4.3
												c-0.81-1.86-2.32-3.3-3.78-4.69c1.16,0.19,2.38-0.37,2.84-1.29c0.47-0.93,0.3-2.08-0.22-2.99
												c-0.51-0.9-1.31-1.6-2.12-2.24c-4.37-3.43-9.55-5.74-14.84-7.47c-1.59-0.51-3.22-0.98-4.89-1.08
												c-0.96-0.05-1.95,0.02-2.88,0.27c1.08-0.94,2.48-1.56,3.92-1.83c2.26-0.4,4.6-0.02,6.82,0.59
												c7.55,2.07,14.45,6.91,18.28,13.75C291.43,234.41,291.84,235.28,291.92,236.2z"/>
										</g>
										<path style="fill:none;stroke:#D7F4F4;stroke-miterlimit:10;" d="M263.14,252.168c0,0-5.786-6.873-9.571-5.174
											c-3.784,1.699,5.506,12.619,8.391,13.723"/>
										<path style="fill:#F3B384;" d="M249.014,247.069c1.038-1.702,3.718-1.961,5.986-0.577
											c2.268,1.383,3.265,3.884,2.227,5.586c-1.038,1.702-3.718,1.96-5.986,0.577
											C248.973,251.272,247.976,248.771,249.014,247.069z"/>
									</g>
								</g>
							</g>
							<path style="fill:#414143;" d="M241.97,324.18c-0.37,5.08-2.44,9.92-3.18,14.96c-0.74,5.04,0.26,10.85,4.63,13.88
								c3.13,2.17,7.27,2.44,11.16,2.61c7.68,0.35,15.37,0.65,23.06,0.9c2.37,0.08,4.88,0.12,6.96-0.94
								c4.05-2.06,4.73-7.2,4.48-11.51c-0.22-3.88-0.79-7.75-1.71-11.54c-0.44-1.83-1.04-3.76-2.57-4.97
								c-1.55-1.23-3.72-1.45-5.74-1.61C267.05,324.97,255.02,323.98,241.97,324.18z"/>
							<g>
								<path style="fill:#C65A2B;" d="M286.86,331.47c-16.68,3.29-32.15,2.72-46.39,0.45c-0.26-0.03-0.52-0.08-0.79-0.12
									c1.33-13.93-0.93-33.69-1.33-45.88c-0.17-4.97-0.03-8.68,0.79-10.25c1.48-2.83,6.15-4.95,10.59-7.04
									c0.84-0.39,1.67-0.79,2.47-1.19c3.7,5.92,7.56,11.61,12.58,10.51c3.42-0.75,5.12-3.41,5.74-9.61
									c1.02,0.34,2.23,0.81,3.52,1.36c3.64,1.53,7.96,3.71,10.72,5.37c0,20.87-0.46,27.93,0.36,39.29
									c0.32,4.35,0.82,9.34,1.61,15.99C286.77,330.7,286.81,331.09,286.86,331.47z"/>
								<path style="fill:#D18258;" d="M274.03,269.69c-0.19,1.45-0.46,2.88-0.92,4.27c-0.9,2.71-2.61,5.27-5.16,6.57
									c-4.07,2.08-9.24,0.38-12.52-2.79c-2.59-2.52-4.27-5.77-5.71-9.11c0.84-0.39,1.67-0.79,2.47-1.19
									c3.7,5.92,7.56,11.61,12.58,10.51c3.42-0.75,5.12-3.41,5.74-9.61C271.52,268.67,272.74,269.14,274.03,269.69z"/>
								<path style="fill:#A64728;" d="M286.86,331.47c-16.68,3.29-32.15,2.72-46.39,0.45c-0.26-0.03-0.52-0.08-0.79-0.12
									c1.33-13.93-0.93-33.69-1.33-45.88c0.01-0.01,0.03-0.02,0.04-0.03l8.56-5.92c1.28,5.16,1.96,10.46,3.34,15.59
									c1.38,5.14,3.52,10.22,7.26,14c4.25,4.3,10.32,6.58,16.37,6.73c3.81,0.09,7.6-0.62,11.19-1.94
									c0.32,4.35,0.82,9.34,1.61,15.99C286.77,330.7,286.81,331.09,286.86,331.47z"/>
							</g>
							<g>
								<g>
									<g>
										<path style="fill:#F3B384;" d="M272.92,324.43c1.11-1.9,3.48-2.78,5.68-2.72c2.2,0.06,4.3,0.9,6.34,1.72
											c2.84,1.15,5.91,2.49,7.33,5.21c0.81,1.54,0.97,3.34,0.97,5.08c0.01,1.64-0.11,3.28-0.34,4.9
											c-0.15,1.01-0.5,2.21-1.48,2.49c-0.9,0.26-1.82-0.44-2.3-1.25c-0.48-0.81-0.72-1.76-1.28-2.51
											c-1.17-1.58-3.35-1.89-5.22-2.5C278.87,333.63,275.74,330.64,272.92,324.43z"/>
										<path style="fill:#F3B384;" d="M278.5,321.76c-0.1,2.53-0.19,5.05-0.21,8.26c-0.63,0.11-1.28,0.21-1.91,0.3
											c-9.99,1.56-20.09,2.34-30.2,2.33c-1.77,0-3.71-0.09-5.02-1.28c-1.2-1.09-1.59-2.83-1.86-4.45
											c-0.79-4.7-1.64-8.3-2.34-13.16c-0.46-3.27-0.86-7.13-1.12-12.28c3.53,0.4,10.3,0.81,14.29,1.35
											c0.18,3.59,0.36,7.17,0.58,10.83c0.12,2.03,0.26,4.08,0.42,6.16c8.91,0.56,17.83,1.1,26.94,1.92
											C278.22,321.73,278.36,321.75,278.5,321.76z"/>
									</g>
									<path style="fill:#E88466;" d="M250.72,313.64c-4.35,0.56-8.77,0.62-13.15,0.19c-0.21-0.02-0.4-0.04-0.61-0.08
										c-0.46-3.27-0.86-7.13-1.12-12.28c3.53,0.4,10.3,0.81,14.29,1.35C250.32,306.4,250.5,309.99,250.72,313.64z"/>
								</g>
								<path style="fill:#C65A2B;" d="M244.7,271.88c-4.46,1.15-7.85,5-9.53,9.29c-1.68,4.29-1.91,9-1.92,13.6
									c-0.01,4.61,0.18,9.26-0.15,13.98c7.2,1.41,14.53,2.17,21.95,2.64C254.23,299.38,252.24,287.44,244.7,271.88z"/>
							</g>
							<g>
								<g>
									<g>
										<path style="fill:#E88466;" d="M265.09,410.73c-0.07,3.44-0.14,6.88-0.17,10.49c-4.33,0.86-8.84,0.86-13.02,0.26
											c-0.15-3.13-0.29-6.25-0.35-9.38C255.78,411.72,259.99,411.32,265.09,410.73z"/>
										<g>
											<path style="fill:#414143;" d="M266.74,432.91c-0.94,1.09-2.66,1.36-4.21,1.5c-4.12,0.36-8.29,0.37-12.42,0.03
												c-1.83-0.14-3.95-0.55-4.72-2.01c-0.34-0.63-0.34-1.32-0.17-2.02c0.16-0.69,0.49-1.39,0.83-2.03
												c1.7-3.25,3.39-6.5,5.07-9.76c4.66-0.1,9.29-0.22,13.91-0.33c1.47,4.06,2.25,7.66,2.47,11.28v0.07
												C267.56,430.76,267.53,432,266.74,432.91z"/>
											<path style="fill:#8F8F8F;" d="M266.74,432.91c-0.94,1.09-2.66,1.36-4.21,1.5c-4.12,0.36-8.29,0.37-12.42,0.03
												c-1.83-0.14-3.95-0.55-4.72-2.01c-0.34-0.63-0.34-1.32-0.17-2.02c1.45,0.94,3.4,1.24,5.2,1.33
												c5.81,0.33,11.68-0.4,17.09-2.11C267.56,430.76,267.53,432,266.74,432.91z"/>
										</g>
									</g>
									<g>
										<path style="fill:#E88466;" d="M271.05,410.73c0.07,3.44,0.14,6.88,0.17,10.49c4.33,0.86,8.84,0.86,13.02,0.26
											c0.15-3.13,0.29-6.25,0.35-9.38C280.36,411.72,276.14,411.32,271.05,410.73z"/>
										<g>
											<path style="fill:#414143;" d="M269.39,432.91c0.94,1.09,2.66,1.36,4.21,1.5c4.12,0.36,8.29,0.37,12.42,0.03
												c1.83-0.14,3.95-0.55,4.72-2.01c0.34-0.63,0.34-1.32,0.17-2.02c-0.16-0.69-0.49-1.39-0.83-2.03
												c-1.7-3.25-3.39-6.5-5.07-9.76c-4.66-0.1-9.29-0.22-13.91-0.33c-1.47,4.06-2.25,7.66-2.47,11.28v0.07
												C268.57,430.76,268.61,432,269.39,432.91z"/>
											<path style="fill:#8F8F8F;" d="M269.39,432.91c0.94,1.09,2.66,1.36,4.21,1.5c4.12,0.36,8.29,0.37,12.42,0.03
												c1.83-0.14,3.95-0.55,4.72-2.01c0.34-0.63,0.34-1.32,0.17-2.02c-1.45,0.94-3.4,1.24-5.2,1.33
												c-5.81,0.33-11.68-0.4-17.09-2.11C268.57,430.76,268.61,432,269.39,432.91z"/>
										</g>
									</g>
								</g>
								<g>
									<path style="fill:#5C5D5E;" d="M270.27,348.4c-0.01-3.75,0.03-7.57,1.04-11.14c3.89-13.82,24.35-14.5,21.69,18.03
										c-1.68,20.53-4.96,40.85-8.29,60.26c-3.89-0.13-10.42-0.26-14.24-0.79C270.88,392.64,270.31,370.6,270.27,348.4z"/>
									<path style="fill:#5C5D5E;" d="M266.27,348.4c0.01-3.75-0.03-7.57-1.09-11.14c-4.08-13.82-25.51-14.5-22.73,18.03
										c1.76,20.53,5.2,40.85,8.68,60.26c4.08-0.13,10.92-0.26,14.92-0.79C265.63,392.64,266.23,370.6,266.27,348.4z"/>
								</g>
							</g>
						</g>
					</g>
					<g>
						<path style="fill:#55B7A4;" d="M262.175,251.135c0,0,15.384,1.891,20.066,3.765c0,0-1.525,8.61-11.078,9.91
							c0,0-7.764-1.543-10.134-4.289L262.175,251.135z"/>
						<path style="fill:#389B7E;" d="M263.818,253.174c0,0,9.832,1.023,12.312,1.726c2.48,0.703,5.245,1.325,5.245,1.325
							S274.048,256.137,263.818,253.174z"/>
						<path style="fill:#389B7E;" d="M262.175,257.666c0,0,8.778,1.023,10.992,1.726c2.214,0.703,4.682,1.325,4.682,1.325
							S271.308,260.628,262.175,257.666z"/>
					</g>
				</g>
				<g>
					<g>
						<g>
							<g>
								<g>
									<g>
										<g>
											<path style="fill:#F3B384;" d="M656.71,234.06c1.37,1.77,2.75,3.57,4.49,4.95c1.75,1.39,3.93,2.33,6.14,2.14
												c1.42-0.12,2.75-0.69,4.02-1.36c2.59-1.36,4.98-3.14,6.82-5.57c-2.62-0.6-4.38-3.29-4.8-6
												c-0.06-0.37-0.09-0.74-0.11-1.11c-0.08-1.48,0.1-2.99,0.38-4.56c0.15-0.92,0.33-1.86,0.51-2.82
												c-3.71-0.51-7.41-1.02-11.14-1.37c-0.09,0.37-0.17,0.76-0.23,1.14c-0.24,1.75-0.11,3.55-0.06,5.33
												c0.07,2.17-0.01,4.44-1.01,6.35c-0.1,0.2-0.23,0.4-0.36,0.59C660.26,233.39,658.34,234.49,656.71,234.06z"/>
											<path style="fill:#E88466;" d="M673.27,227.12c-3.39,2.73-7.59,4.39-11.91,4.66c0.13-0.19,0.25-0.39,0.36-0.59
												c1-1.9,1.08-4.17,1.01-6.35c-0.06-1.78-0.19-3.58,0.06-5.33c1.29-0.5,2.72-0.71,4.09-0.63c2.43,0.15,4.73,1.04,6.77,3.68
												"/>
										</g>
										<g>
											<path style="fill:#E88466;" d="M648.966,213.964c0.738-1.876,3.361-2.6,5.859-1.617c2.498,0.983,3.924,3.3,3.187,5.176
												c-0.738,1.876-3.361,2.6-5.859,1.617C649.654,218.157,648.228,215.84,648.966,213.964z"/>
											<path style="fill:#F3B384;" d="M661.26,227.82c7.81,1.9,17.98-5.16,20.33-15.19c2.35-10.02-2.08-19.69-9.89-21.6
												c-2.33-0.56-4.68-0.38-6.92,0.43c-5.1,1.82-10.48,2.76-11.3,13.53C652.48,218.28,653.45,225.91,661.26,227.82z"/>
											<g>
												<ellipse style="fill:#46290C;" cx="656.16" cy="213.86" rx="0.89" ry="1.32"/>
												<ellipse style="fill:#46290C;" cx="666.8" cy="214.44" rx="0.89" ry="1.32"/>
												<path style="fill:none;stroke:#46290C;stroke-linecap:round;stroke-miterlimit:10;" d="M666.58,207.87
													c1.5-0.31,3.15,0.23,4.17,1.38"/>
												<path style="fill:none;stroke:#46290C;stroke-linecap:round;stroke-miterlimit:10;" d="M654.08,208.07
													c1.15-1.07,2.99-1.3,4.38-0.56"/>
												<path style="fill:none;stroke:#C95147;stroke-linecap:round;stroke-miterlimit:10;" d="M659.24,214.32
													c-0.13,1.43-0.05,2.88,0.25,4.28"/>
											</g>
											<g>
												<path style="fill:#3B1E09;" d="M677.79,196.91c0.29-2.05,0.81-4.09,1.87-5.86s2.72-3.25,4.71-3.78
													c2.52-0.67,5.34,0.33,7.06,2.29c1.72,1.96,2.34,4.76,1.84,7.32c-0.51,2.58-2.12,4.92-4.35,6.3
													c-2.23,1.39-5.04,1.8-7.58,1.12"/>
												<g>
													<path style="fill:#46290C;" d="M677.33,219.42c-1.52-5.5-2.66-11.11-3.6-17.04c-6.28-0.91-12.69-0.98-19.35-0.37
														c-0.29,0.01-0.59,0.05-0.89,0.07c0.24-3.09,1.82-5.98,4.02-8.17c4.25-4.2,10.92-5.79,16.6-3.93
														c1.67,0.55,3.19,1.36,4.51,2.38c3.2,2.45,5.33,6.13,5.99,10.3C685.57,208.56,683.53,215.17,677.33,219.42z"/>
													<path style="fill:#664113;" d="M678.62,192.36c-4.45-1.9-9.66-2.01-14.16-0.21c-4.49,1.79-8.17,5.44-10.08,9.86
														c-0.29,0.01-0.59,0.05-0.89,0.07c0.24-3.09,1.82-5.98,4.02-8.17c4.25-4.2,10.92-5.79,16.6-3.93
														C675.78,190.53,677.3,191.33,678.62,192.36z"/>
												</g>
											</g>
											<path style="fill:none;stroke:#D7F4F4;stroke-miterlimit:10;" d="M670.75,218.863c0,0,7.02-5.043,9.121-1.974
												c2.101,3.069-7.54,9.682-9.906,9.857"/>
											<path style="fill:#F3B384;" d="M678.838,215.23c2.308-0.761,4.641,0.026,5.212,1.757c0.57,1.731-0.838,3.751-3.146,4.511
												c-2.308,0.761-4.641-0.026-5.212-1.757C675.121,218.01,676.53,215.991,678.838,215.23z"/>
										</g>
									</g>
									<g>
										<g>
											<path style="fill:#E88466;" d="M644.79,251.97c-2.3,12.3-2.89,24.92-1.17,37.53c3.43,0.87,7.04,1.01,10.53,0.41
												c0.7-12.86,0.55-25.76-0.46-38.59C650.95,251.74,648.2,252.16,644.79,251.97z"/>
											<path style="fill:#5596D4;" d="M649.17,237.37c-4.84,7.47-8.08,15.78-10.18,24.39c3.94,3.34,8.58,5.84,13.54,7.31
												C653.94,259.79,654.02,250.34,649.17,237.37z"/>
										</g>
										<g>
											<g>
												<path style="fill:#5EA7DC;" d="M690.32,296.38c-12.69,2.23-30.22,1.7-42.83,1.2c2.23-7.64,2.77-15.93,0.93-23.69
													c-0.35-1.24-0.64-2.48-0.9-3.73c-2.34-11.06-1.6-22.32,1.65-32.81c3.28-2.11,6.68-3.31,10.09-4.52
													c1.67,2.82,3.53,5.29,5.67,7.52c4.26-1.53,8.33-4.07,12.14-7.36c4.42,2.35,9.2,3.31,10.73,6.48
													c2.47,5.08,0.46,12.02-0.01,18.11c-0.28,3.73-0.76,7.39-1.46,10.78C684.47,277.29,685.06,285.73,690.32,296.38z"/>
												<path style="fill:#5596D4;" d="M690.32,296.38c-12.69,2.23-30.22,1.7-42.83,1.2c2.23-7.64,2.77-15.93,0.93-23.69
													c-0.35-1.24-0.64-2.48-0.9-3.73c4.9,5.16,6.04,11.95,15.01,10.6c8.06-1.22,12.51-14.36,16.14-34.29
													c0.38-2.09,8.2,13.03,9.11,11.11c-0.28,3.73-0.76,7.39-1.46,10.78C684.47,277.29,685.06,285.73,690.32,296.38z"/>
											</g>
											<g>
												<path style="fill:#9ACFED;" d="M665.04,240.45c0.54-1.55,1.07-3.1,1.61-4.77c3.22-1.29,6.02-3.6,7.94-6.35
													c0.77,1.32,1.66,2.77,2.82,3.76C674.7,237.4,669.99,240.11,665.04,240.45z"/>
												<path style="fill:#9ACFED;" d="M657.81,233.36c0.82-1.09,1.64-2.17,2.45-3.26c1.07,1.89,2.35,3.53,3.76,5.05
													c0.18,1.86,0.5,3.59,1.09,5.33C662.14,238.76,659.61,236.3,657.81,233.36z"/>
											</g>
											<path style="fill:#9ACFED;" d="M658.45,257.05c-0.01,0-0.02,0-0.03,0c-3.58,0.28-6.57,0.08-10.69-0.27
												c-0.06-0.51-0.03-1.54,0-1.99c3.7,0,7.4,0.09,11.13,0.23C658.74,255.68,658.62,256.35,658.45,257.05z"/>
										</g>
										<g>
											<g>
												<path style="fill:#F3B384;" d="M694.77,288.42c-3.67,0.25-7.09,0.51-10.52,0.77c-0.21-5.22-0.62-10.49-1.3-15.75
													c-0.51-3.99-1.16-7.98-1.99-11.93c4.14-0.85,8.32-1.28,12.48-1.23c0.17,3.62,0.35,7.22,0.51,10.81
													C694.23,276.89,694.51,282.66,694.77,288.42z"/>
												<path style="fill:#E88466;" d="M693.95,271.09c-1.09,0.6-2.27,1.06-3.46,1.39c-2.45,0.68-4.99,0.89-7.54,0.95
													c-0.51-3.99-1.16-7.98-1.99-11.93c4.14-0.85,8.32-1.28,12.48-1.23C693.62,263.9,693.79,267.5,693.95,271.09z"/>
											</g>
											<path style="fill:#5EA7DC;" d="M687.84,239.47c4.05,7.99,7.17,16.44,9.33,24.85c-5.5,3.1-11.34,5.6-16.79,7.04
												c-1.67-5.63-3.36-11.36-3.35-17.24C677.05,248.24,679.01,242.09,687.84,239.47z"/>
										</g>
									</g>
								</g>
								<g>
									<path style="fill:#55B7A4;" d="M653.155,217.58c0,0,3.719-2.301,18.49,0c0,0,0.826,8.68-2.482,10.107
										c-3.309,1.427-7.803,1.175-7.803,1.175S653.549,227.197,653.155,217.58z"/>
									<path style="fill:#389B7E;" d="M654.624,219.501c-0.328-0.072,3.165-1.394,15.34,0.521
										C669.964,220.022,659.549,220.583,654.624,219.501z"/>
									<path style="fill:#389B7E;" d="M656.381,224.864c-0.29-0.049,2.803-0.956,13.583,0.357
										C669.964,225.222,660.742,225.607,656.381,224.864z"/>
								</g>
							</g>
							<g>
								<polygon style="fill:#A1B7BF;" points="653.11,284.26 643.84,267.73 591.5,267.73 600.77,284.26 								"/>
								<polygon style="fill:#F1FAFC;" points="582.22,284.26 591.49,267.73 643.84,267.73 634.57,284.26 								"/>
							</g>
							<g>
								<g>
									<g>
										<polygon style="fill:#5D5E5E;" points="812.35,217.6 809.45,219.18 798.44,271.43 705.38,271.43 702.77,274.09 
											700.78,271.43 700.75,271.43 712.67,214.89 810.35,214.89 810.34,214.93 810.36,214.92 										"/>
										<polygon style="fill:#414143;" points="812.35,217.58 800.44,274.13 702.75,274.13 714.66,217.58 										"/>
									</g>
									<polygon style="fill:#313033;" points="759.8,274.13 740.86,274.13 747.5,246.2 754.46,246.24 									"/>
								</g>
								<g>
									<rect x="736.99" y="280.32" style="fill:#4C4B4F;" width="41.37" height="3.59"/>
									<polyline style="fill:#4C4B4F;" points="749.07,244.53 747.31,246.08 754.33,282.64 758.72,282.61 									"/>
									<polygon style="fill:#313033;" points="756.38,283.92 749.07,244.49 772,244.49 779.3,283.92 									"/>
								</g>
							</g>
							<g>
								<g>
									<g>
										<g>
											<path style="fill:#348278;" d="M855.46,239.98c1.14-3.6,3.46-6.73,6.44-8.68c2.97-1.95,6.58-2.71,9.99-2.1
												C869.44,235.35,863.83,239.8,855.46,239.98z"/>
											<path style="fill:#348278;" d="M849.2,244.69c5.57-2.71,12.37-2.13,17.49,1.51C861.8,249.16,855.62,249.33,849.2,244.69z
												"/>
											<path style="fill:#348278;" d="M845.59,248.69c2.32-6.48,1.37-14.26-2.42-19.84c-0.9,3.06-1.71,6.2-1.74,9.42
												C841.4,241.49,842.24,244.83,845.59,248.69z"/>
											<path style="fill:#348278;" d="M842.89,251.44c2.89-1.52,6.28-1.51,9.39-0.69c3.11,0.83,6,2.42,8.86,4
												C855.36,257.22,848.6,256.72,842.89,251.44z"/>
											<path style="fill:#348278;" d="M839.56,256.82c1.38-6.8-0.86-14.34-5.62-18.94c-0.34,3.32-0.69,6.69-0.18,9.98
												S835.76,254.42,839.56,256.82z"/>
											<path style="fill:#348278;" d="M834.75,265.55c4.34-6.56,12.41-9.83,19.58-7.91c-2.35,2.75-4.9,5.38-7.92,7.17
												C843.39,266.6,839.83,267.51,834.75,265.55z"/>
										</g>
										<path style="fill:#348278;" d="M852.49,242.05c3.18-5.18,3.71-12.21,1.34-17.9C849.85,228.71,848.7,235.99,852.49,242.05z
											"/>
									</g>
									<path style="fill:none;stroke:#123030;stroke-width:0.5;stroke-linecap:round;stroke-miterlimit:10;" d="M856.3,239.14
										c-11.86,7.66-20.94,20.38-24.89,34.87"/>
									<g>
										<g>
											<path style="fill:#3F9182;" d="M806.47,245.79c-0.99-3.14-3.7-5.33-6.58-6.32c-2.88-0.99-5.96-0.96-8.98-0.93
												C792.96,243.51,797.81,246.9,806.47,245.79z"/>
											<path style="fill:#3F9182;" d="M809.82,248.11c-3.39-5.42-4.64-12.41-3.35-18.84c2.26,2.59,4.58,5.27,5.73,8.63
												C813.35,241.26,813.05,245.49,809.82,248.11z"/>
											<path style="fill:#3F9182;" d="M816.45,254.2c-2.8-6.87-2.56-15.15,0.63-21.81C820.78,238.28,820.98,246.59,816.45,254.2
												z"/>
											<path style="fill:#3F9182;" d="M820.9,260.8c-0.81-3.43-0.53-7.17,0.78-10.41s3.64-5.97,6.5-7.6
												c0.33,3.48,0.23,7.06-0.78,10.37C826.39,256.47,824.4,259.51,820.9,260.8z"/>
											<path style="fill:#3F9182;" d="M811.78,250.16c-4.95-2.03-10.67-1.63-15.34,1.08c1.9,2.24,4.69,3.54,7.47,3.49
												C806.7,254.66,809.45,253.26,811.78,250.16z"/>
											<path style="fill:#3F9182;" d="M818.77,257.32c-5.54-1.5-11.66-0.07-16.18,3.77c2.53,1.41,5.5,1.83,8.27,1.18
												C813.63,261.6,816.18,259.88,818.77,257.32z"/>
										</g>
										<path style="fill:none;stroke:#123030;stroke-width:0.5;stroke-linecap:round;stroke-miterlimit:10;" d="M824.4,271.4
											c-2.34-11.57-9.95-21.69-19.83-26.36"/>
									</g>
									<g>
										<g>
											<path style="fill:#4CA68B;" d="M834.95,227.91c-1.83-4.26-0.53-9.51,2.1-13.23c2.64-3.71,6.4-6.21,10.16-8.59
												C846.56,214.86,841.99,223.18,834.95,227.91z"/>
											<path style="fill:#4CA68B;" d="M832.74,234.12c1.46-8.28-1.99-17.35-8.37-22.02c0.08,4.06,0.17,8.16,1.18,12.07
												C826.55,228.07,828.6,231.8,832.74,234.12z"/>
											<path style="fill:#4CA68B;" d="M832.05,238.13c4.31-7.33,11.96-12.15,20.31-12.26
												C848.22,233.4,840.32,238.21,832.05,238.13z"/>
											<path style="fill:#4CA68B;" d="M830.09,248.39c4.07-7.44,12.34-11.81,20.16-10.65
												C846.15,244.85,838.51,249.3,830.09,248.39z"/>
											<path style="fill:#4CA68B;" d="M831,243.65c0.01-3.91-1.81-7.62-4.33-10.37c-2.52-2.75-5.7-4.65-8.92-6.29
												c0.83,3.55,1.69,7.16,3.45,10.27C822.96,240.36,825.79,242.95,831,243.65z"/>
											<path style="fill:#4CA68B;" d="M829.64,254.78c-0.18-3.58-2.4-6.73-5.12-8.69c-2.72-1.96-5.92-2.94-9.06-3.89
												c1.06,3.48,2.17,7.07,4.36,9.84C822,254.82,825.56,256.63,829.64,254.78z"/>
											<path style="fill:#4CA68B;" d="M829.21,260.77c0.73-3.88,3.54-6.97,6.75-8.75c3.21-1.77,6.83-2.42,10.39-2.96
												c-2.01,3.37-4.29,6.62-7.26,8.96C836.11,260.36,832.34,261.71,829.21,260.77z"/>
										</g>
										<path style="fill:none;stroke:#123030;stroke-width:0.5;stroke-linecap:round;stroke-miterlimit:10;" d="M829.21,274.06
											c-1.18-16.19,0.91-32.66,6.08-47.87"/>
									</g>
								</g>
								<g>
									<polygon style="fill:#F1FAFC;" points="855.55,265 851.18,274.64 846.82,284.27 815.23,284.27 811.24,274.64 807.24,265 
																			"/>
									<polygon style="fill:#DFEDED;" points="851.18,274.64 846.82,284.27 815.23,284.27 811.24,274.64 									"/>
								</g>
							</g>
						</g>
						<g>
							<g>
								<g>
									<rect x="579.33" y="299.35" style="fill:#F1FAFC;" width="295.67" height="135.27"/>
									<rect x="579.33" y="309.05" style="fill:#DFEDED;" width="295.67" height="18.26"/>
								</g>
								<g>
									<g>
										<rect x="568.46" y="283.91" style="fill:#4FA9AE;" width="306.53" height="15.44"/>
										<rect x="568.46" y="283.91" style="fill:#65C9C8;" width="306.53" height="4"/>
									</g>
									<g>
										<rect x="573.01" y="299.35" style="fill:#4FA9AE;" width="301.99" height="9.7"/>
										<rect x="573.01" y="299.35" style="fill:#4394A1;" width="301.99" height="3.71"/>
									</g>
								</g>
								<rect x="568.46" y="418.64" style="fill:#65C9C8;" width="306.53" height="15.98"/>
							</g>
							<g>
								<g>
									<rect x="713.91" y="345.03" style="fill:#DFEDED;" width="9.26" height="42.57"/>
									<rect x="697.253" y="361.689" style="fill:#DFEDED;" width="42.57" height="9.26"/>
								</g>
								<g>
									<rect x="711.32" y="342.32" style="fill:#4FA9AE;" width="9.26" height="42.57"/>
									<rect x="694.664" y="358.976" style="fill:#4FA9AE;" width="42.57" height="9.26"/>
								</g>
							</g>
						</g>
					</g>
					<g>
						<g>
							<g>
								<g>
									<path style="fill:#F3B384;" d="M511.35,411.26c-0.35,4.28-0.71,8.56-0.58,13.24c2.67,0.49,5.34,0.99,8.42,1.95
										c0.23-4.2,0.77-8.37,1.77-12.48C517.77,413.12,514.56,412.28,511.35,411.26z"/>
									<g>
										<path style="fill:#1B1B1F;" d="M521.49,433.93c-0.59,1.13-25.37,0.84-26.15,0.11c-0.72-0.68-1.42-1.57-1.83-2.56
											c-0.44-1.01-0.59-2.12-0.23-3.2c0.85-2.59,3.55-2.92,5.75-3.2c3.57-0.47,8.61-2.36,11.71-4.62
											c4.06,0.61,4.57,0.79,8.85,1.59c0.63,2.6,1.9,6.45,2.15,9.22C521.86,432.39,521.8,433.32,521.49,433.93z"/>
										<path style="fill:#4D4E54;" d="M521.49,433.93c-0.59,1.13-25.37,0.84-26.15,0.11c-0.72-0.68-1.42-1.57-1.83-2.56
											c9.45,0.6,18.94,0.52,28.23-0.2C521.86,432.39,521.8,433.32,521.49,433.93z"/>
									</g>
								</g>
								<g>
									<path style="fill:#F3B384;" d="M544.86,411.26c0.35,4.28,0.71,8.56,0.58,13.24c-2.67,0.49-5.34,0.99-8.42,1.95
										c-0.23-4.2-0.77-8.37-1.77-12.48C538.45,413.12,541.65,412.28,544.86,411.26z"/>
									<g>
										<path style="fill:#1B1B1F;" d="M534.72,433.93c0.59,1.13,25.37,0.84,26.15,0.11c0.72-0.68,1.42-1.57,1.83-2.56
											c0.44-1.01,0.59-2.12,0.23-3.2c-0.85-2.59-3.55-2.92-5.75-3.2c-3.57-0.47-8.61-2.36-11.71-4.62
											c-4.06,0.61-4.57,0.79-8.85,1.59c-0.63,2.6-1.9,6.45-2.15,9.22C534.36,432.39,534.41,433.32,534.72,433.93z"/>
										<path style="fill:#4D4E54;" d="M534.72,433.93c0.59,1.13,25.37,0.84,26.15,0.11c0.72-0.68,1.42-1.57,1.83-2.56
											c-9.45,0.6-18.94,0.52-28.23-0.2C534.36,432.39,534.41,433.32,534.72,433.93z"/>
									</g>
								</g>
								<g>
									<g>
										<path style="fill:#414143;" d="M550.98,312.42c0.1,34.06-1.88,69.02-3.49,103.99c-4.94,1.12-7.7,1.2-13.02,1.66
											c-1.54-30.15-3.27-59.28-3.52-88.73c-3.66,29.77-5.28,58.98-8.38,88.52c-5.19-0.26-9.36-0.7-13.45-1.84
											c-0.31-34.59-0.05-69.4,0.95-103.23c0.18-6.35,0.4-12.65,0.63-18.92c0.25-6.39,0.53-12.74,0.83-19.03
											c13.05,0.82,25.94,4.31,38.92,11.87c0.08,2,0.15,4,0.21,6.01C550.86,299.23,550.97,305.8,550.98,312.42z"/>
										<path style="fill:#2F2F33;" d="M550.98,312.42c-5.35,0.54-10.78,0.31-16.07-0.69c-0.54-1.59-1.01-3.22-1.18-4.88
											c-0.7,1.54-1.4,3.07-2.11,4.6c-7.02,1.77-14.37,2.22-21.54,1.32c0.18-6.35,0.4-12.65,0.63-18.92
											c1.28-0.56,2.67-0.91,4.03-1.22c9.43-2.14,19.2-3.38,28.78-2.14c2.48,0.32,5.06,0.85,7.14,2.21
											C550.86,299.23,550.97,305.8,550.98,312.42z"/>
									</g>
									<path style="fill:#5C5D5E;" d="M508.78,417.23c4.68,0.9,9.44,1.27,14.3,1.17c0.28-1.42,0.57-2.84,0.9-4.56
										c-5.13-0.42-10.23-1.22-15.31-2.45C508.71,413.27,508.75,415.14,508.78,417.23z"/>
									<path style="fill:#5C5D5E;" d="M548.59,410.76c-0.22,2.22-0.43,4.45-0.65,6.67c-4.68,1.17-9.39,1.55-14.06,1.16
										c-0.13-1.6-0.21-3.05-0.25-4.27C538.46,413.51,543.27,412.5,548.59,410.76z"/>
								</g>
							</g>
							<g>
								<g>
									<path style="fill:#F3B384;" d="M537.58,234.01c-1.48,2.08-2.97,4.19-4.86,5.81c-1.9,1.63-4.25,2.73-6.64,2.52
										c-1.53-0.15-2.97-0.81-4.34-1.6c-2.8-1.6-5.39-3.69-7.38-6.54c2.83-0.71,4.74-3.87,5.18-7.05c0.06-0.44,0.1-0.87,0.12-1.3
										c0.09-1.74-0.11-3.51-0.41-5.35c-0.16-1.08-0.36-2.18-0.55-3.32c4.01-0.6,8.02-1.2,12.04-1.61
										c0.1,0.44,0.18,0.89,0.24,1.34c0.26,2.06,0.12,4.17,0.06,6.26c-0.07,2.55,0.01,5.22,1.1,7.45c0.11,0.24,0.24,0.47,0.39,0.7
										C533.75,233.22,535.82,234.51,537.58,234.01z"/>
									<path style="fill:#E88466;" d="M519.68,225.85c3.66,3.2,8.21,5.16,12.87,5.48c-0.14-0.22-0.27-0.46-0.39-0.7
										c-1.09-2.24-1.17-4.9-1.1-7.45c0.06-2.09,0.2-4.21-0.06-6.26c-1.4-0.58-2.94-0.83-4.42-0.74
										c-2.63,0.18-5.11,1.23-7.31,4.33"/>
								</g>
								<g>
									<path style="fill:#D95768;" d="M550.99,286.34c4.09,0.79,17.55-1.08,27.79-23.26c-3.62-2.45-7.05-4.15-10.48-5.85
										c-3.6,2.08-4.5,3.77-9.43,5.93c-1.11-10.85-11.04-29.09-14.51-26.72c-2.98,3.35-2.7,6.92-4.02,10.38
										C536.82,261.14,539.81,272.27,550.99,286.34z"/>
									<path style="fill:#9C354D;" d="M580.98,258.64c-3.27-3.09-7.4-5.08-12.12-5.73c-0.15,2.68,1.16,5.35,3.44,6.76
										C574.58,261.08,577.64,261.13,580.98,258.64z"/>
									<g>
										<path style="fill:#F3B384;" d="M589.55,246.31c-0.23,0.56-0.75,0.91-1.23,1.22c-1.21,0.75-2.42,1.51-3.77,2.66
											c-1.1,3.65-2.89,5.94-5.95,7.45c-0.87,1.51-1.74,3-2.61,4.51c-2.38-1.67-4.75-3.32-7.13-4.98
											c0.53-0.68,1.05-1.37,1.58-2.05c0-0.01,0.01-0.01,0-0.02c1.16-4.12,1.33-4.87,2.19-7.89c1.53-5.45,3.98-10.37,7.85-13.82
											c0.46-0.4,0.97-0.82,1.55-0.91c0.59-0.09,1.28,0.25,1.42,0.87c0.12,0.54-0.21,1.07-0.51,1.52c-1.35,2-2.69,4-3.75,6.28
											c2.16-2.07,4.8-3.58,7.6-4.34c0.41-0.12,0.86-0.22,1.28-0.09c0.41,0.14,0.78,0.58,0.71,1.04
											c-0.06,0.37-0.36,0.62-0.63,0.85c-1.94,1.56-3.89,3.14-5.76,5.21c1.75-0.89,3.6-1.54,5.49-1.98
											c0.47-0.12,0.99-0.21,1.44,0.01c0.46,0.23,0.76,0.81,0.68,1.36c-0.07,0.54-0.49,1.01-1.06,1.69
											C589.48,244.93,589.77,245.75,589.55,246.31z"/>
										<path style="fill:none;stroke:#E88466;stroke-linecap:round;stroke-miterlimit:10;" d="M573.58,248.57
											c1.7-2.15,3.67-4.08,5.87-5.73c0.39-0.29,0.88-0.59,1.34-0.42c0.36,0.14,0.56,0.55,0.56,0.93c0,0.38-0.16,0.75-0.32,1.1
											c-0.71,1.45-1.66,2.78-2.6,4.01c0.62,1.78,0.28,3.86-0.87,5.37"/>
									</g>
									<path style="fill:#F28E8A;" d="M579.6,266.65c-3.8,0.37-7.76-0.73-10.55-2.92c0.02-0.15,0.01-0.15-0.01-0.15
										c0.3-1.37,0.58-2.74,0.87-4.11c-1.27,0.83-2.52,1.62-3.77,2.42c-0.16,0.05-0.21,0.05-0.26,0.05
										c-1.43-0.89-2.42-2.25-2.74-3.72c1.68-1.64,3.72-3.47,5.75-5.3c1.01,1.99,2.76,3.59,4.91,4.6
										c2.15,1.01,4.69,1.44,7.17,1.16C580.53,261.26,580.1,263.84,579.6,266.65z"/>
								</g>
								<g>
									<path style="fill:#E66F75;" d="M553.19,307.82c-0.88,1.48-13.33,1.36-15.82,0.29c-1.54-0.66-2.56-4.47-3.11-6.47
										c-1.8,2.3-2.31,4.97-4.1,6.18c-2.17,1.47-20.89,1.62-22.4-1.17c-0.62-1.14,0.79-8.86,0.81-13.27
										c0.12-18.52-6.97-46.39-5.21-52.48c1.51-5.25,10.39-7.53,14.4-8.42c3.3,2.89,6.62,6.18,11.03,9.49
										c2.57-2.14,4.07-4.68,5.73-9.46c4.9,1.08,12.18,2.62,14.4,7.41c1.99,4.31,0.42,27.85,2.34,44.51
										C552.17,292.3,554.92,304.9,553.19,307.82z"/>
									<path style="fill:#F28E8A;" d="M528.8,241.91c-3.13-4.1-6.65-7.84-10.55-11.15c-1.32-0.33-2.75-0.56-3.94,0.16
										s-2.13,1.93-2.72,3.6c0.67,4.08,1.33,8.17,2.07,12.41C517.57,242.72,523.46,241.33,528.8,241.91z"/>
									<g>
										<circle style="fill:#414143;" cx="529.71" cy="248.23" r="1.29"/>
										<circle style="fill:#414143;" cx="531" cy="262.17" r="1.29"/>
										<circle style="fill:#414143;" cx="532.3" cy="274.82" r="1.29"/>
										<circle style="fill:#414143;" cx="533.59" cy="291.21" r="1.29"/>
									</g>
									<path style="fill:#F28E8A;" d="M543.41,243.97c-0.05-2.97-1.29-7.25-2.6-10.28c-1.51-2.01-5.05-2.75-7.24-1.98
										c-1.06,4.04-2.6,7.34-4.77,10.15C532.39,239.78,540.06,241.22,543.41,243.97z"/>
									<path style="fill:#F28E8A;" d="M544.03,261.95c-2.07-0.36-3.44-0.8-4.87-2.35c-1.8-1.95-1.68-4.94-1.45-7.58
										c3.85-0.34,7.39-0.25,11.17-0.2c0.28,1.93,0.56,4.78,0.14,6.68C548.6,260.4,546.49,261.4,544.03,261.95z"/>
								</g>
								<g>
									<path style="fill:#F3B384;" d="M495.7,300.82c1.88,3.58,3.76,7.17,5.64,10.75c0.3,0.57,0.61,1.17,0.6,1.81
										c-0.01,0.64-0.46,1.31-1.09,1.32c-0.61,0.01-1.06-0.56-1.41-1.08c-0.8-1.17-1.6-2.34-2.68-3.54
										c-1.12,3.02-2.24,6.04-3.35,9.07c-0.28,0.76-0.59,1.55-1.22,2.04c-0.63,0.48-1.7,0.48-2.12-0.22
										c-0.25-0.42-0.21-0.94-0.14-1.42c0.25-1.78,0.74-3.52,1.44-5.73c-1.86,1.89-3.72,3.78-5.58,5.68
										c-0.35,0.36-0.72,0.72-1.17,0.93c-0.45,0.21-1.04,0.2-1.43-0.13c-0.4-0.34-0.49-0.96-0.35-1.46
										c0.14-0.51,0.46-0.93,0.78-1.34c1.14-1.48,2.28-2.96,3.24-4.87c-1.79,1.13-3.57,2.26-5.36,3.39
										c-0.53,0.34-1.12,0.69-1.75,0.62c-0.58-0.06-1.11-0.5-1.28-1.07s0.04-1.22,0.63-2.03c-0.52-0.4-0.64-1.18-0.45-1.8
										c0.19-0.63,0.61-1.14,1.03-1.64c2.2-2.61,4.41-5.22,7.05-7.85C488.81,301.06,491.08,300.24,495.7,300.82z"/>
									<g>
										<path style="fill:#E66F75;" d="M506.92,236.66c-9.07,7.81-14.37,19.28-16.87,30.99c-2.49,11.71-2.43,23.79-1.94,35.34
											c3.43,1.11,6.85,2.22,10.6,3.29c0.75-10.09,0.77-16.98,4.38-26c2.34-5.85,7.11-14.35,10.58-18.57
											C512.79,254.32,511.07,247.05,506.92,236.66z"/>
										<path style="fill:#F28E8A;" d="M503.08,296.51c-0.63,3.09-1.75,7.48-2.97,9.69c-5.06,0.5-10.23-1.39-14.1-4.92
											c-0.7-3.12,0.22-6.69,0.09-10.07c3.35,2.49,5.68,4.36,9.62,4.85c0.23,2.36,0.38,4.73,0.49,7.16
											c1.26-1.84,2.17-4.08,2.68-6.45C500.19,297.49,501.58,296.39,503.08,296.51z"/>
										<path style="fill:#D95768;" d="M506.58,272.19c3.8-6.17,5.9-13.37,6.27-20.47C514.95,258.9,512.35,267.22,506.58,272.19z"
											/>
									</g>
								</g>
							</g>
							<g>
								<path style="fill:#E88466;" d="M539.734,209.161c2.717-0.998,5.518-0.176,6.257,1.835c0.739,2.011-0.864,4.451-3.581,5.449
									c-2.716,0.998-5.518,0.176-6.257-1.835C535.414,212.599,537.017,210.159,539.734,209.161z"/>
								<g>
									<path style="fill:#F3B384;" d="M532.35,225.6c-8.44,2.02-19.12-5.47-21.67-16.1c-2.54-10.62,2.25-20.87,10.69-22.9
										c2.52-0.6,5.06-0.41,7.48,0.46c5.51,1.93,10.29,7.26,12.22,14.35c0.07,0.26,0.14,0.53,0.2,0.79
										C543.81,212.82,540.8,223.57,532.35,225.6z"/>
									<path style="fill:#E88466;" d="M529.37,200.77c0.34,1.25-0.41,2.48-1.47,3.05c-1.06,0.58-2.35,0.6-3.53,0.31
										c-1.17-0.28-2.25-0.86-3.32-1.43c-0.79,3.55-3.05,6.81-6.2,8.64l-2.6-4.83c-2.1-4.87-0.59-10.89,3.15-14.65
										c3.47-3.48,8.54-5.09,13.45-4.82c5.51,1.93,10.29,7.26,12.22,14.35C537.28,202.23,533.16,202.02,529.37,200.77z"/>
								</g>
								<g>
									<path style="fill:none;stroke:#CF4F46;stroke-linecap:round;stroke-miterlimit:10;" d="M534.49,212.2
										c0.3,1.24,0.27,2.51-0.11,3.74"/>
									<path style="fill:none;stroke:#46290C;stroke-linecap:round;stroke-miterlimit:10;" d="M535.72,203.98
										c1.44-1.09,3.55-1.21,5.09-0.27"/>
									<path style="fill:none;stroke:#46290C;stroke-linecap:round;stroke-miterlimit:10;" d="M522.05,206.06
										c1.42-1.62,3.86-2.24,5.88-1.5"/>
									<ellipse style="fill:#414143;" cx="526.98" cy="211.35" rx="1.01" ry="1.28"/>
									<ellipse style="fill:#414143;" cx="538.27" cy="211.35" rx="1.01" ry="1.28"/>
								</g>
								<g>
									<path style="fill:#46290C;" d="M542.31,195.33c1.44,0.82,1.91,1.59,1.83,2.29c-0.08,0.7-0.59,1.31-1.2,1.66
										c-0.62,0.36-1.33,0.49-2.04,0.58c-4.14,0.53-10.22,0.36-14.93-1.85c0.03,0.64,3.15,2.59,1.39,3.66
										c-1.02,0.62-5.23,0.39-9.53-2.3c1.67,3.37,0.36,5.8-0.32,7.72c-1,2.86-3.29,5.13-5.34,8.5c-2.85-4.21-5.57-7.7-6.74-12.8
										c-0.94-4.13,0.05-8.32,4.41-8.52c-0.31-2.08,0.63-4.21,2.09-5.73c0.18-0.2,0.39-0.38,0.59-0.56
										c1.37-1.2,3.05-2.02,4.76-2.69c5.99-2.34,12.94-2.84,19.22-1.44c1.04,0.23,2.09,0.53,2.88,1.24
										c0.79,0.7,1.21,1.93,0.55,3.13c1.62,0.03,5.4,0.72,5.52,2.92C545.64,194.24,543.53,194.24,542.31,195.33z"/>
									<path style="fill:#5E3E15;" d="M542.31,195.33c1.44,0.82,1.91,1.59,1.83,2.29c-0.08,0.7-0.59,1.31-1.2,1.66
										c-1.27-2.06-3.55-3.51-5.98-3.54c0.44-0.76,1.3-1.13,2.01-1.68c0.7-0.55,1.28-1.5,0.92-2.32c-0.26-0.58-0.9-0.89-1.5-1.09
										c-1.6-0.55-3.31-0.77-5-0.63c0.94-0.16,1.63-1.16,1.52-2.07c-0.1-0.91-0.84-1.65-1.67-2.01c-0.84-0.38-1.77-0.45-2.69-0.49
										c-6.1-0.31-12.46,0.17-18.03,2.53c1.37-1.2,3.05-2.02,4.76-2.69c5.99-2.34,12.94-2.84,19.22-1.44
										c1.04,0.23,2.09,0.53,2.88,1.24c0.79,0.7,1.21,1.93,0.55,3.13c1.62,0.03,5.4,0.72,5.52,2.92
										C545.64,194.24,543.53,194.24,542.31,195.33z"/>
								</g>
								<path style="fill:none;stroke:#D7F4F4;stroke-miterlimit:10;" d="M522.678,214.941c0,0-8.221-5.055-10.68-1.612
									c-2.459,3.444,9.48,11.024,12.007,11.15"/>
								<path style="fill:#F3B384;" d="M507.966,214.172c0.57-1.853,3.06-2.731,5.562-1.961c2.502,0.77,4.068,2.896,3.499,4.749
									c-0.57,1.853-3.06,2.731-5.563,1.961C508.962,218.15,507.396,216.024,507.966,214.172z"/>
							</g>
						</g>
						<g>
							<path style="fill:#55B7A4;" d="M522.05,214.354c0,0,13.222-1.572,20.093-0.823c0,0,0.299,8.971-8.399,12.399
								c0,0-5.614,1-10.105-0.722C522.052,221.587,521.521,217.969,522.05,214.354z"/>
							<path style="fill:#389B7E;" d="M524.99,216.986c0,0,6.974-1.528,15.516-0.824
								C540.506,216.162,531.542,217.472,524.99,216.986z"/>
							<path style="fill:#389B7E;" d="M525.284,222.711c0,0,6.304-1.528,14.025-0.824
								C539.309,221.887,531.206,223.197,525.284,222.711z"/>
						</g>
					</g>
				</g>
			</g>
		</g>
	</g>
</g>
</svg>
